<svg height="740" width="740" xmlns="http://www.w3.org/2000/svg">
<rect width="100%" height="100%" x="0" y="0" style="fill:white;stroke:white;stroke-width:0"/>
<g style="fill:white;stroke:black;stroke-width:1">
<rect width="625" height="625" x="60" y="60"/>
<polygon points="10,95 10,85 30,85 40,95 60,95 40,95 30,105 10,105 10,95"/>
<text x="65" y="85" dominant-baseline="hanging" text-anchor="start" font-size="20" style="fill:black;stroke:black;stroke-width:0">arst_ni</text>
<polygon points="10,145 10,135 30,135 40,145 60,145 40,145 30,155 10,155 10,145"/>
<text x="65" y="135" dominant-baseline="hanging" text-anchor="start" font-size="20" style="fill:black;stroke:black;stroke-width:0">clk_i</text>
<polygon points="10,245 10,235 30,235 40,245 60,245 40,245 30,255 10,255 10,245"/>
<text x="65" y="235" dominant-baseline="hanging" text-anchor="start" font-size="20" style="fill:black;stroke:black;stroke-width:0">clear_i</text>
<polygon points="10,345 10,335 30,335 40,345 60,345 40,345 30,355 10,355 10,345"/>
<text x="65" y="335" dominant-baseline="hanging" text-anchor="start" font-size="20" style="fill:black;stroke:black;stroke-width:0">data_in_secondary_i</text>
<polygon points="10,395 10,385 30,385 40,395 60,395 40,395 30,405 10,405 10,395"/>
<text x="65" y="385" dominant-baseline="hanging" text-anchor="start" font-size="20" style="fill:black;stroke:black;stroke-width:0">data_in_secondary_valid_i</text>
<polygon points="10,445 20,435 40,435 40,445 60,445 40,445 40,455 20,455 10,445"/>
<text x="65" y="435" dominant-baseline="hanging" text-anchor="start" font-size="20" style="fill:black;stroke:black;stroke-width:0">data_in_secondary_ready_o</text>
<polygon points="10,545 10,535 30,535 40,545 60,545 40,545 30,555 10,555 10,545"/>
<text x="65" y="535" dominant-baseline="hanging" text-anchor="start" font-size="20" style="fill:black;stroke:black;stroke-width:0">data_in_primary_i</text>
<polygon points="10,595 10,585 30,585 40,595 60,595 40,595 30,605 10,605 10,595"/>
<text x="65" y="585" dominant-baseline="hanging" text-anchor="start" font-size="20" style="fill:black;stroke:black;stroke-width:0">data_in_primary_valid_i</text>
<polygon points="10,645 20,635 40,635 40,645 60,645 40,645 40,655 20,655 10,645"/>
<text x="65" y="635" dominant-baseline="hanging" text-anchor="start" font-size="20" style="fill:black;stroke:black;stroke-width:0">data_in_primary_ready_o</text>
<polygon points="685,545 705,545 705,535 725,535 735,545 725,555 705,555 705,545 685,545"/>
<text x="680" y="535" dominant-baseline="hanging" text-anchor="end" font-size="20" style="fill:black;stroke:black;stroke-width:0">data_out_o</text>
<polygon points="685,595 705,595 705,585 725,585 735,595 725,605 705,605 705,595 685,595"/>
<text x="680" y="585" dominant-baseline="hanging" text-anchor="end" font-size="20" style="fill:black;stroke:black;stroke-width:0">data_out_valid_o</text>
<polygon points="685,645 705,645 715,635 735,635 735,645 735,655 715,655 705,645 685,645"/>
<text x="680" y="635" dominant-baseline="hanging" text-anchor="end" font-size="20" style="fill:black;stroke:black;stroke-width:0">data_out_ready_i</text>
<text x="372" y="700" dominant-baseline="hanging" text-anchor="middle" font-size="30" style="fill:black;stroke:black;stroke-width:0">adn_common_pipeline_join</text>
</g>
</svg>
